<?xml version="1.0" encoding="UTF-8"?>
<svg xmlns="http://www.w3.org/2000/svg" xmlns:xlink="http://www.w3.org/1999/xlink" viewBox="398.8 158.2 480.0 480.0">
<rect x="398.8" y="158.2" width="480" height="480" rx="96" fill="#1B3A2D"/>
<path fill-rule="nonzero" fill="#FAF7F2" fill-opacity="1" d="M 597.421875 521.855469 C 597.308594 521.820312 597.191406 521.789062 597.09375 521.753906 L 597.109375 521.738281 C 597.222656 521.773438 597.324219 521.804688 597.421875 521.855469 "/>
<path fill-rule="nonzero" fill="#FAF7F2" fill-opacity="1" d="M 512.382812 367.308594 C 512.382812 414.847656 536.796875 456.730469 573.816406 481.03125 C 573.984375 481.144531 574.148438 481.261719 574.332031 481.363281 C 574.710938 481.625 575.125 481.875 575.539062 482.136719 C 576.050781 482.453125 576.5625 482.785156 577.109375 483.113281 C 577.921875 483.625 578.765625 484.089844 579.589844 484.585938 C 591.070312 491.253906 609.515625 499.953125 630.738281 502.105469 L 630.636719 502.203125 C 636.558594 502.882812 642.628906 503.210938 648.253906 503.210938 C 677.203125 503.210938 704.082031 494.148438 726.113281 478.714844 L 726.113281 510.160156 C 702.988281 522.78125 676.441406 529.976562 648.253906 529.976562 C 635.351562 529.976562 622.8125 528.46875 610.789062 525.625 C 608.222656 525.03125 605.695312 524.371094 603.179688 523.640625 C 602.78125 523.527344 602.386719 523.410156 601.988281 523.292969 C 601.558594 523.160156 601.128906 523.03125 600.699219 522.898438 C 600.597656 522.863281 600.484375 522.828125 600.367188 522.796875 C 600.085938 522.714844 599.804688 522.617188 599.523438 522.53125 C 598.945312 522.351562 598.347656 522.152344 597.738281 521.953125 C 597.636719 521.90625 597.539062 521.871094 597.421875 521.855469 C 597.324219 521.804688 597.222656 521.773438 597.109375 521.738281 C 588.144531 518.695312 575.753906 513.664062 563.050781 505.910156 C 559.34375 503.644531 555.640625 501.175781 551.96875 498.429688 L 551.984375 498.414062 C 511.722656 468.804688 485.601562 421.117188 485.601562 367.308594 C 485.601562 277.46875 558.417969 204.636719 648.238281 204.636719 C 692.71875 204.636719 732.996094 222.46875 762.390625 251.402344 L 742.277344 269.234375 C 717.894531 245.792969 684.746094 231.402344 648.238281 231.402344 C 573.191406 231.402344 512.382812 292.257812 512.382812 367.308594 "/>
<path fill-rule="nonzero" fill="#FAF7F2" fill-opacity="1" d="M 610.789062 525.625 L 610.769531 525.644531 C 610.769531 525.644531 607.925781 525.0625 603.179688 523.640625 C 605.691406 524.367188 608.222656 525.03125 610.789062 525.625 "/>
<path fill-rule="nonzero" fill="#FAF7F2" fill-opacity="1" d="M 792 339.335938 L 792 510.65625 L 756.71875 510.65625 L 756.71875 386.761719 L 639.4375 502.945312 L 633.285156 509.050781 L 615.683594 526.535156 L 615.535156 526.683594 L 593.785156 548.222656 L 587.449219 554.539062 L 549.882812 591.707031 L 500.289062 591.707031 L 554.363281 537.75 L 559.742188 532.375 L 578.183594 514.078125 L 579.394531 512.871094 L 598.496094 493.867188 L 608.636719 483.777344 L 609.21875 483.195312 L 718.855469 374.617188 L 603.378906 374.617188 L 603.378906 339.335938 Z M 792 339.335938 "/>
</svg>
